<?xml version="1.0" encoding="UTF-8"?>
<svg width="21px" height="20px" viewBox="0 0 21 20" version="1.1" xmlns="http://www.w3.org/2000/svg" xmlns:xlink="http://www.w3.org/1999/xlink">
    <title>Reset</title>
    <g id="Page-1" stroke="none" stroke-width="1" fill="none" fill-rule="evenodd">
        <g id="Buttons" transform="translate(-33.000000, 0.000000)" fill="#7B7B7B" fill-rule="nonzero">
            <path d="M35.9723727,3.40026774 L39.0781291,5.9437751 C38.1678212,7.06827309 37.6858935,8.40696118 37.6858935,9.82597055 C37.6858935,13.2262383 40.4435909,15.9839357 43.8438587,15.9839357 C47.2441264,15.9839357 50.0018239,13.2262383 50.0018239,9.82597055 C50.0018239,8.40696118 49.5198962,7.06827309 48.636362,5.97054886 L48.636362,5.97054886 L51.7421184,3.4270415 C53.2146753,5.22088353 54.0178881,7.49665328 54.0178881,9.82597055 C54.0178881,15.4484605 49.4395749,20 43.8438587,20 C38.2481425,20 33.6698292,15.4484605 33.6698292,9.82597055 C33.6698292,7.49665328 34.4998158,5.22088353 35.9723727,3.40026774 L35.9723727,3.40026774 Z M45.8518908,0 L45.8518908,8.62115127 L41.8358265,8.62115127 L41.8358265,0 L45.8518908,0 Z" id="Reset"></path>
        </g>
    </g>
</svg>