<?xml version="1.0" encoding="UTF-8"?>
<svg width="20px" height="20px" viewBox="0 0 20 20" version="1.1" xmlns="http://www.w3.org/2000/svg" xmlns:xlink="http://www.w3.org/1999/xlink">
    <title>XCard</title>
    <g id="Page-1" stroke="none" stroke-width="1" fill="none" fill-rule="evenodd">
        <g id="Buttons" transform="translate(-56.000000, 0.000000)" fill="#7B7B7B" fill-rule="nonzero">
            <path d="M70.15,0 L76,5.875 L76,14.125 L70.15,20 L61.9,20 L56,14.125 L56,5.875 L61.9,0 L70.15,0 Z M69.5463952,3.75 C68.361482,4.9182243 67.1765688,6.10313752 65.9916555,7.28805073 C64.8234312,6.10313752 63.638518,4.9182243 62.4536048,3.75 C61.5524032,4.6512016 60.6512016,5.5524032 59.75,6.45360481 C60.9182243,7.63851802 62.1031375,8.82343124 63.2880507,9.99165554 C62.1031375,11.1765688 60.9182243,12.361482 59.75,13.5463952 C60.6512016,14.4475968 61.5524032,15.3487984 62.4536048,16.25 C63.638518,15.0650868 64.8234312,13.8968625 65.9916555,12.7119493 C67.1765688,13.8968625 68.361482,15.0650868 69.5463952,16.25 L69.5463952,16.25 L72.25,13.5463952 C71.0650868,12.361482 69.8968625,11.1765688 68.7119493,9.99165554 C69.8968625,8.82343124 71.0650868,7.63851802 72.25,6.45360481 C71.3487984,5.5524032 70.4475968,4.6512016 69.5463952,3.75 Z" id="XCard"></path>
        </g>
    </g>
</svg>